<svg xmlns="http://www.w3.org/2000/svg" width="162" height="170" fill="none" xmlns:v="https://vecta.io/nano"><path d="M33.37 102.008l-24.145 23.63 11.583 24.648 21.658 2.119 31.796-31.133 21.403 45.608 21.679 2.12 18.385-18.015-19.171-40.86 26.057 2.564L161 94.675l-11.562-24.648-20.808-2.035 24.145-23.631-11.584-24.648-21.679-2.119-31.775 31.133L66.335 3.119 44.656 1 26.271 19.014l19.171 40.84-26.057-2.543L1 75.325l11.562 24.648 20.808 2.035z" fill="#000"/><g stroke="#fff" stroke-width="1.5" stroke-linecap="round" stroke-linejoin="round"><path d="M44.656 1l69.394 147.866"/><path d="M131.096 42.242L20.809 150.286"/><path d="M161 94.675L30.947 81.959m104.782 69.027l-28.927-61.609M95.665 166.88L66.76 105.271m6.801-42.662l45.951-45.015m-12.71 71.783l45.972-45.015"/><path d="M19.385 57.311l54.176 5.298M12.562 99.973l54.198 5.299m20.978-56.544L66.335 3.119m29.331 163.762l-21.403-45.608"/><path d="M45.442 59.875L26.271 19.014m109.458 131.971l-19.171-40.86m-28.82-61.398l31.775-31.133M42.466 152.406l31.796-31.133m-65.037 4.365l24.145-23.63m95.26-34.015l24.145-23.631"/><path d="M30.947 81.959L19.385 57.311m133.39-12.949l-11.584-24.648m-21.679-2.12l11.583 24.648M1 75.325l11.562 24.648m136.876-29.946L161 94.675M20.809 150.286L9.225 125.638m10.16-68.327l26.057 2.564m71.116 50.25l26.057 2.564M117.344 169l18.385-18.015m-21.679-2.119L95.665 166.88M19.385 57.311L1 75.325m11.562 24.648l18.385-18.014M161 94.675l-18.385 18.014M26.271 19.014L44.656 1m-2.19 151.405l-21.658-2.119m74.857 16.595L117.344 169M44.656 1l21.679 2.119"/><path d="M135.729 150.985l-21.679-2.119m27.141-129.152l-21.679-2.119m11.583 24.647l21.68 2.119M12.562 99.973l20.808 2.035m95.26-34.016l20.808 2.035"/></g></svg>