<svg xmlns="http://www.w3.org/2000/svg" width="312" height="177" fill="none" stroke="#fff" stroke-width="1.5" xmlns:v="https://vecta.io/nano"><path d="M311.25 18.489c0 .407-.171.868-.624 1.395s-1.172 1.093-2.17 1.669c-1.998 1.153-4.992 2.29-8.917 3.386-7.839 2.189-19.217 4.169-33.318 5.835-28.193 3.331-67.163 5.393-110.221 5.393s-82.028-2.062-110.221-5.393c-14.101-1.666-25.479-3.646-33.318-5.835-3.925-1.096-6.919-2.233-8.917-3.386-.998-.577-1.713-1.137-2.17-1.669S.75 18.895.75 18.489s.171-.868.624-1.395 1.172-1.094 2.17-1.67c1.998-1.153 4.992-2.29 8.917-3.386 7.839-2.19 19.217-4.17 33.318-5.836C73.972 2.872 112.942.81 156 .81s82.028 2.062 110.221 5.393c14.101 1.666 25.479 3.646 33.318 5.835 3.925 1.096 6.919 2.233 8.917 3.386.998.576 1.713 1.137 2.17 1.669s.624.989.624 1.395zm0 45.758c0 1.575-.909 3.227-2.907 4.938s-4.976 3.386-8.889 5.006c-7.82 3.239-19.181 6.172-33.275 8.641-28.176 4.936-67.13 7.994-110.179 7.994s-82.003-3.058-110.179-7.994c-14.094-2.469-25.455-5.402-33.275-8.641-3.913-1.62-6.896-3.3-8.889-5.006S.75 65.822.75 64.247s.909-3.228 2.907-4.938 4.976-3.386 8.889-5.007c7.82-3.239 19.181-6.172 33.275-8.641 28.176-4.936 67.13-7.993 110.179-7.993s82.003 3.057 110.179 7.993c14.094 2.469 25.455 5.402 33.275 8.641 3.913 1.621 6.896 3.301 8.889 5.007s2.907 3.363 2.907 4.938zm0 69.735c0 5.457-4.078 10.839-11.915 15.876-7.802 5.014-19.143 9.559-33.223 13.386-28.15 7.653-67.081 12.395-110.112 12.395s-81.962-4.742-110.112-12.395c-14.08-3.827-25.421-8.372-33.223-13.386C4.828 144.821.75 139.439.75 133.982s4.078-10.839 11.915-15.876c7.802-5.015 19.143-9.559 33.223-13.387C74.038 97.067 112.969 92.325 156 92.325s81.962 4.742 110.112 12.394c14.08 3.828 25.421 8.372 33.223 13.387 7.837 5.037 11.915 10.419 11.915 15.876z"/><path d="M156 18.29v115.457"/></svg>